<svg fill="#E6DA00" xmlns="http://www.w3.org/2000/svg" xmlns:xlink="http://www.w3.org/1999/xlink" version="1.1" x="0px" y="0px" xml:space="preserve" height="80px" width="180px" viewBox="-233 283 92 10"><g><g><path d="M-144.3,268.7h-85.4c-1.3,0-2.3,1-2.3,2.3v34.3c0,1.3,1,2.3,2.3,2.3h85.5c1.3,0,2.3-1,2.3-2.3V271    C-142,269.7-143,268.7-144.3,268.7z M-143.2,303.5c0,1.3-1,2.4-2.3,2.4h-82.8c-1.3,0-2.3-1.1-2.3-2.4v-27.3c0-1.3,1-2.4,2.3-2.4    h82.9c1.3,0,2.3,1.1,2.3,2.4L-143.2,303.5L-143.2,303.5z"/><path d="M-147.2,275.3H-178v1.9c0,0.6-0.6,1-1.3,1h-23.9c-0.5,0-0.9-0.3-0.9-0.7v-2.2h-22.7c-1.2,0-2.2,1-2.2,2.1v24.9    c0,1.2,1,2.1,2.2,2.1h22.8v-0.8c0-0.7,0.6-1.3,1.3-1.3h23.9c0.5,0,0.9,0.4,0.9,0.9v1.2h30.7c1.2,0,2.2-1,2.2-2.1v-24.8    C-145,276.3-146,275.3-147.2,275.3z M-209.5,293c0,0.4-0.2,0.7-0.6,0.7h-4.5v4.6c0,0.4-0.3,0.7-0.7,0.7h-3.7    c-0.4,0-0.5-0.3-0.5-0.7v-4.6h-4.6c-0.4,0-0.5-0.1-0.5-0.5v-3.6c0-0.4,0.1-0.5,0.5-0.5h4.5v-4.5c0-0.4,0.1-0.7,0.5-0.7h3.8    c0.4,0,0.7,0.3,0.7,0.7v4.5h4.4c0.4,0,0.7,0.3,0.7,0.7V293L-209.5,293z M-178,299.6c0,0.7-0.6,1.3-1.3,1.3h-23.5    c-0.7,0-1.3-0.6-1.3-1.3v-6.8c0-0.7,0.6-1.3,1.3-1.3h23.5c0.7,0,1.3,0.6,1.3,1.3V299.6z M-178,288.9c0,0.5-0.5,1-1.1,1H-203    c-0.6,0-1-0.4-1-0.9v-2.2c0-0.5,0.5-0.9,1.1-0.9h23.9c0.6,0,1,0.4,1,0.9V288.9L-178,288.9z M-178,283.1c0,0.6-0.5,1-1.1,1H-203    c-0.6,0-1-0.4-1-0.9V281c0-0.5,0.5-0.9,1.1-0.9h23.9c0.6,0,1,0.4,1,1V283.1L-178,283.1z M-163.9,300.4c0,0.3-0.3,0.6-0.6,0.6h-9    c-0.3,0-0.6-0.3-0.6-0.6v-9c0-0.3,0.3-0.6,0.6-0.6h9c0.3,0,0.6,0.3,0.6,0.6V300.4z M-151.8,300.4c0,0.3-0.3,0.6-0.6,0.6h-9    c-0.3,0-0.6-0.3-0.6-0.6v-9c0-0.3,0.3-0.6,0.6-0.6h9c0.3,0,0.6,0.3,0.6,0.6V300.4z"/><path d="M-180.2,292.7h-22c-0.4,0-0.6,0.3-0.6,0.6v5.6c0,0.3,0.3,0.6,0.6,0.6h22c0.4,0,0.6-0.3,0.6-0.6v-5.6    C-179.6,293-179.8,292.7-180.2,292.7z M-194.1,297.4h-4.7c-0.8,0-1.4-0.5-1.4-1.2c0-0.7,0.6-1.2,1.4-1.2h4.7    c0.8,0,1.4,0.5,1.4,1.2C-192.7,296.8-193.3,297.4-194.1,297.4z M-183.4,297.4h-4.7c-0.8,0-1.4-0.5-1.4-1.2c0-0.7,0.6-1.2,1.4-1.2    h4.7c0.8,0,1.4,0.5,1.4,1.2C-182,296.8-182.6,297.4-183.4,297.4z"/></g><circle cx="-169" cy="296" r="4"/><circle cx="-157" cy="296" r="4"/></g></svg>