<svg height="300px" width="300px" fill="#000000" xmlns="http://www.w3.org/2000/svg" data-name="Layer 2" viewBox="0 0 64 64" x="0px" y="0px"><title>wii U console game evolution</title><path d="M54.25,13.5H9.75A5.74,5.74,0,0,0,4,19.25v20.5A5.75,5.75,0,0,0,9.75,45.5h44.5A5.75,5.75,0,0,0,60,39.75V19.25A5.74,5.74,0,0,0,54.25,13.5Zm-1,5.88a2.5,2.5,0,1,1-2.5,2.5A2.5,2.5,0,0,1,53.3,19.38ZM31.94,15.23a1,1,0,1,1-1,1A1,1,0,0,1,31.94,15.23ZM10.4,19.38a2.5,2.5,0,1,1-2.5,2.5A2.5,2.5,0,0,1,10.4,19.38ZM14.25,34.5h-3v2.89a.11.11,0,0,1-.11.11H9.36a.11.11,0,0,1-.11-.11V34.5h-3v-2h3V29.6a.11.11,0,0,1,.11-.1h1.78a.11.11,0,0,1,.11.1v2.9h3Zm17.14,9.4a1.5,1.5,0,1,1,1.5-1.5A1.51,1.51,0,0,1,31.39,43.9Zm16-6.11a2,2,0,0,1-2,2h-27a2,2,0,0,1-2-2v-17a2,2,0,0,1,2-2h27a2,2,0,0,1,2,2Zm2.86-3a1.25,1.25,0,1,1,1.25-1.25A1.25,1.25,0,0,1,50.3,34.75Zm3,3a1.25,1.25,0,1,1,1.25-1.25A1.25,1.25,0,0,1,53.3,37.75Zm0-6a1.25,1.25,0,1,1,1.25-1.25A1.25,1.25,0,0,1,53.3,31.75Zm3,3a1.25,1.25,0,1,1,1.25-1.25A1.25,1.25,0,0,1,56.3,34.75Z"/></svg>